# xmcd
#
# Track frame offsets: 
#        182
#        19757
#        37007
#        56932
#        78182
#        100457
#        116282
#        137957
#        156332
#        172907
#
# Disc length: 2586 seconds
#
# Revision: 2
# Processed by: cddbd v1.5.2PL0 Copyright (c) Steve Scherf et al.
# Submitted via: ExactAudioCopyFreeDBPlugin 1.0
#
DISCID=810a180a
DTITLE=Belafonte, Shari - Eyes Of Night
DYEAR=1987
DGENRE=Pop
TTITLE0=(Looking through) the eyes of night
TTITLE1=Who do you think am I
TTITLE2=Love aint´t no good (without oou)
TTITLE3=Gimme your pop
TTITLE4=Lonely nights (where did you sleep last night)
TTITLE5=I want to be needed
TTITLE6=Cinderella
TTITLE7=Pictures of love
TTITLE8=Love is made in heaven
TTITLE9=Let me go
EXTD=
EXTT0=
EXTT1=
EXTT2=
EXTT3=
EXTT4=
EXTT5=
EXTT6=
EXTT7=
EXTT8=
EXTT9=
PLAYORDER=
